<svg width="24" height="24" viewBox="0 0 24 24" fill="none" xmlns="http://www.w3.org/2000/svg">
<path fill-rule="evenodd" clip-rule="evenodd" d="M14.3928 3.06477C11.9574 2.41221 9.49003 2.79438 7.45415 3.94297C7.09339 4.14651 6.63594 4.01905 6.43241 3.65829C6.22887 3.29753 6.35633 2.84008 6.71709 2.63655C9.0811 1.30284 11.9513 0.857647 14.7811 1.61589C20.5158 3.15251 23.9191 9.04713 22.3825 14.7819C20.8458 20.5167 14.9512 23.9199 9.21646 22.3833C3.4817 20.8467 0.0784345 14.952 1.61506 9.21728C1.91932 8.08176 2.39509 7.03633 3.00751 6.1023C3.58151 5.22684 4.73929 5.15904 5.47254 5.75252L12.4706 11.4166C12.7926 11.6772 12.8423 12.1495 12.5817 12.4714C12.3211 12.7934 11.8489 12.8432 11.5269 12.5826L7.48721 9.31291C7.01806 10.0988 6.74876 11.0171 6.74876 11.9996C6.74876 14.8991 9.09927 17.2496 11.9988 17.2496C14.8983 17.2496 17.2488 14.8991 17.2488 11.9996C17.2488 9.10009 14.8983 6.74959 11.9988 6.74959C11.4173 6.74959 10.8594 6.84383 10.3386 7.01729C9.94556 7.14817 9.52088 6.93569 9.39 6.5427C9.25912 6.1497 9.4716 5.72502 9.86459 5.59414C10.5363 5.37042 11.2542 5.24959 11.9988 5.24959C15.7267 5.24959 18.7488 8.27167 18.7488 11.9996C18.7488 15.7275 15.7267 18.7496 11.9988 18.7496C8.27084 18.7496 5.24876 15.7275 5.24876 11.9996C5.24876 10.6607 5.63922 9.41167 6.31206 8.36177L4.52885 6.91847C4.473 6.87327 4.41017 6.85969 4.36028 6.86572C4.31486 6.87121 4.28409 6.89094 4.26191 6.92477C3.73591 7.727 3.32639 8.62608 3.06395 9.60551C1.74174 14.5401 4.67012 19.6122 9.60469 20.9344C14.5392 22.2566 19.6114 19.3282 20.9336 14.3937C22.2558 9.4591 19.3274 4.38699 14.3928 3.06477Z" fill="white"/>
</svg>
