<svg width="569" height="156" viewBox="0 0 569 156" fill="none" xmlns="http://www.w3.org/2000/svg">
<g clip-path="url(#clip0_75_1829)">
<path d="M28.0207 31.98L43.7122 31.9925C53.1852 40.874 65.1148 48.2585 73.5813 58.0315C65.0943 58.681 56.3258 58.167 47.7858 58.34C47.6943 62.742 47.6762 67.145 47.7332 71.545C51.5382 75.19 55.9568 78.42 60.0358 81.765C66.8653 87.365 73.6178 93.115 80.7498 98.33C80.8833 103.105 81.2333 121.525 79.8498 124.94C73.7293 121.215 67.8652 115.205 62.2397 110.65C50.9177 101.49 38.4292 92.7449 28.0377 82.5949C27.6847 65.7524 28.0192 48.8325 28.0207 31.98Z" fill="white"/>
<path d="M118.076 32.003C123.056 31.8415 128.039 31.789 133.021 31.846C133.024 48.652 132.757 65.5055 133.126 82.305L99.6331 109.805C93.8996 114.52 88.2511 119.725 82.2291 124.025C81.4791 124.56 80.7816 124.98 79.8501 124.94C81.2336 121.525 80.8836 103.105 80.7501 98.33C91.4171 89.445 102.579 80.89 112.956 71.695L113.074 58.3525C104.452 58.2305 95.8281 58.2555 87.2071 58.4265C92.7126 52.6995 99.2291 47.726 105.293 42.5915C109.464 39.06 113.566 35.066 118.076 32.003Z" fill="white" fill-opacity="0.7"/>
</g>
<path d="M174.774 78L159.708 37.1338H165.061L177.238 71.8828H177.352L189.529 37.1338H194.882L179.815 78H174.774ZM198.252 78V48.5469H203.18V78H198.252ZM200.716 43.5625C199.866 43.5625 199.139 43.2604 198.535 42.6562C197.931 42.0521 197.629 41.3252 197.629 40.4756C197.629 39.6071 197.931 38.8802 198.535 38.2949C199.139 37.6908 199.866 37.3887 200.716 37.3887C201.584 37.3887 202.311 37.6908 202.896 38.2949C203.501 38.8802 203.803 39.6071 203.803 40.4756C203.803 41.3252 203.501 42.0521 202.896 42.6562C202.311 43.2604 201.584 43.5625 200.716 43.5625ZM209.892 78V48.5469H214.819V52.7383H214.933C215.726 51.36 216.877 50.2272 218.388 49.3398C219.898 48.4336 221.767 47.9805 223.995 47.9805C227.224 47.9805 229.725 48.9622 231.5 50.9258C233.294 52.8704 234.19 55.5231 234.19 58.8838V78H229.263V59.7617C229.263 57.3639 228.696 55.5326 227.563 54.2676C226.45 52.9837 224.76 52.3418 222.494 52.3418C220.946 52.3418 219.596 52.6911 218.444 53.3896C217.293 54.0693 216.396 55.0322 215.754 56.2783C215.131 57.5244 214.819 58.9876 214.819 60.668V78H209.892ZM240.789 78V48.5469H245.717V78H240.789ZM243.253 43.5625C242.403 43.5625 241.676 43.2604 241.072 42.6562C240.468 42.0521 240.166 41.3252 240.166 40.4756C240.166 39.6071 240.468 38.8802 241.072 38.2949C241.676 37.6908 242.403 37.3887 243.253 37.3887C244.121 37.3887 244.848 37.6908 245.434 38.2949C246.038 38.8802 246.34 39.6071 246.34 40.4756C246.34 41.3252 246.038 42.0521 245.434 42.6562C244.848 43.2604 244.121 43.5625 243.253 43.5625ZM262.001 78.5664C259.301 78.5664 257.281 77.9245 255.94 76.6406C254.6 75.3568 253.93 73.3083 253.93 70.4951V52.625H249.625V48.5469H253.93V40.5889H259.027V48.5469H264.635V52.625H259.027V70.4668C259.027 72.0339 259.367 73.1006 260.047 73.667C260.727 74.2145 261.727 74.4883 263.049 74.4883C263.351 74.4883 263.634 74.4788 263.898 74.46C264.182 74.4222 264.427 74.3939 264.635 74.375V78.3682C264.333 78.4059 263.936 78.4437 263.445 78.4814C262.973 78.5381 262.492 78.5664 262.001 78.5664ZM299.667 78.6797C295.891 78.6797 292.596 77.8112 289.783 76.0742C286.989 74.3372 284.827 71.8923 283.298 68.7393C281.769 65.5674 281.004 61.8385 281.004 57.5527V57.5244C281.004 53.2386 281.769 49.5192 283.298 46.3662C284.827 43.2132 286.989 40.7777 289.783 39.0596C292.577 37.3226 295.872 36.4541 299.667 36.4541C302.499 36.4541 305.076 36.9922 307.398 38.0684C309.721 39.1445 311.656 40.6455 313.204 42.5713C314.771 44.4971 315.81 46.7533 316.319 49.3398L316.376 49.623H311.222L311.023 49C310.495 47.3385 309.702 45.932 308.645 44.7803C307.606 43.6097 306.332 42.7129 304.821 42.0898C303.311 41.4668 301.593 41.1553 299.667 41.1553C296.948 41.1553 294.579 41.835 292.559 43.1943C290.557 44.5348 289 46.4323 287.886 48.8867C286.791 51.3223 286.243 54.2015 286.243 57.5244V57.5527C286.243 60.8568 286.791 63.7454 287.886 66.2188C289 68.6732 290.567 70.5801 292.587 71.9395C294.607 73.2988 296.967 73.9785 299.667 73.9785C301.574 73.9785 303.273 73.667 304.765 73.0439C306.275 72.4209 307.568 71.5052 308.645 70.2969C309.721 69.0697 310.551 67.5592 311.137 65.7656L311.222 65.5107H316.376L316.319 65.7939C315.81 68.3994 314.781 70.6745 313.232 72.6191C311.684 74.5449 309.749 76.0365 307.427 77.0938C305.104 78.151 302.518 78.6797 299.667 78.6797ZM321.898 78V37.1338H326.826V53.248H326.939C327.732 51.5866 328.912 50.2933 330.479 49.3682C332.047 48.443 333.925 47.9805 336.115 47.9805C338.211 47.9805 340.042 48.4902 341.609 49.5098C343.195 50.5104 344.432 51.9076 345.319 53.7012C346.207 55.4948 346.65 57.5811 346.65 59.96V78H341.723V60.8096C341.723 58.1475 341.081 56.0706 339.797 54.5791C338.513 53.0876 336.719 52.3418 334.416 52.3418C332.906 52.3418 331.575 52.7005 330.423 53.418C329.29 54.1354 328.403 55.1266 327.761 56.3916C327.138 57.6566 326.826 59.1292 326.826 60.8096V78H321.898ZM361.519 78.5664C359.574 78.5664 357.865 78.1982 356.393 77.4619C354.92 76.7256 353.768 75.6872 352.938 74.3467C352.126 73.0062 351.72 71.4486 351.72 69.6738V69.6172C351.72 67.9368 352.135 66.4831 352.966 65.2559C353.815 64.0286 355.033 63.0563 356.619 62.3389C358.224 61.6214 360.15 61.1966 362.396 61.0645L373.3 60.4414V64.2646L362.963 64.8877C360.999 65.001 359.47 65.473 358.375 66.3037C357.299 67.1344 356.761 68.2389 356.761 69.6172V69.6738C356.761 71.0898 357.289 72.2132 358.347 73.0439C359.423 73.8747 360.848 74.29 362.623 74.29C364.171 74.29 365.559 73.9691 366.786 73.3271C368.032 72.6663 369.014 71.7695 369.731 70.6367C370.468 69.5039 370.836 68.2295 370.836 66.8135V58.1191C370.836 56.3255 370.27 54.9189 369.137 53.8994C368.023 52.861 366.437 52.3418 364.379 52.3418C362.491 52.3418 360.962 52.7572 359.791 53.5879C358.639 54.3997 357.922 55.4665 357.639 56.7881L357.582 57.043H352.824L352.853 56.7314C353.004 55.1077 353.551 53.6351 354.495 52.3135C355.458 50.9919 356.78 49.944 358.46 49.1699C360.14 48.377 362.132 47.9805 364.436 47.9805C366.758 47.9805 368.759 48.377 370.439 49.1699C372.139 49.9629 373.451 51.0863 374.376 52.54C375.301 53.9749 375.764 55.6742 375.764 57.6377V78H370.836V73.2139H370.723C370.156 74.29 369.401 75.234 368.457 76.0459C367.513 76.8389 366.446 77.4619 365.257 77.915C364.086 78.3493 362.84 78.5664 361.519 78.5664ZM392.076 78.5664C389.924 78.5664 388.083 78.1227 386.554 77.2354C385.043 76.348 383.882 75.0924 383.07 73.4688C382.277 71.8262 381.881 69.891 381.881 67.6631V48.5469H386.809V66.7852C386.809 69.1829 387.366 71.0238 388.479 72.3076C389.612 73.5726 391.312 74.2051 393.577 74.2051C394.748 74.2051 395.796 74.0068 396.721 73.6104C397.665 73.2139 398.477 72.6569 399.156 71.9395C399.836 71.2031 400.355 70.3252 400.714 69.3057C401.073 68.2673 401.252 67.125 401.252 65.8789V48.5469H406.18V78H401.252V73.8086H401.139C400.61 74.7148 399.921 75.5267 399.071 76.2441C398.241 76.9616 397.24 77.528 396.069 77.9434C394.899 78.3587 393.568 78.5664 392.076 78.5664ZM423.682 78.5664C421.171 78.5664 418.971 77.9434 417.083 76.6973C415.214 75.4323 413.76 73.6576 412.722 71.373C411.683 69.0697 411.164 66.3698 411.164 63.2734V63.2451C411.164 60.1488 411.683 57.4583 412.722 55.1738C413.779 52.8893 415.242 51.124 417.111 49.8779C418.98 48.613 421.142 47.9805 423.597 47.9805C424.994 47.9805 426.287 48.207 427.477 48.6602C428.685 49.0944 429.761 49.7269 430.705 50.5576C431.649 51.3695 432.423 52.3418 433.027 53.4746H433.141V37.1338H438.068V78H433.141V73.0156H433.027C432.423 74.1673 431.659 75.1585 430.733 75.9893C429.808 76.8011 428.751 77.4336 427.562 77.8867C426.391 78.3398 425.098 78.5664 423.682 78.5664ZM424.645 74.2051C426.306 74.2051 427.779 73.752 429.062 72.8457C430.346 71.9395 431.347 70.665 432.064 69.0225C432.801 67.3799 433.169 65.4635 433.169 63.2734V63.2451C433.169 61.055 432.801 59.1481 432.064 57.5244C431.328 55.8818 430.318 54.6074 429.034 53.7012C427.769 52.7949 426.306 52.3418 424.645 52.3418C422.908 52.3418 421.407 52.7855 420.142 53.6729C418.877 54.5602 417.904 55.8158 417.225 57.4395C416.545 59.0632 416.205 60.9984 416.205 63.2451V63.2734C416.205 65.5202 416.545 67.4648 417.225 69.1074C417.904 70.75 418.877 72.015 420.142 72.9023C421.407 73.7708 422.908 74.2051 424.645 74.2051ZM444.979 78V37.1338H449.906V53.248H450.02C450.812 51.5866 451.993 50.2933 453.56 49.3682C455.127 48.443 457.005 47.9805 459.195 47.9805C461.291 47.9805 463.122 48.4902 464.689 49.5098C466.275 50.5104 467.512 51.9076 468.399 53.7012C469.287 55.4948 469.73 57.5811 469.73 59.96V78H464.803V60.8096C464.803 58.1475 464.161 56.0706 462.877 54.5791C461.593 53.0876 459.799 52.3418 457.496 52.3418C455.986 52.3418 454.655 52.7005 453.503 53.418C452.37 54.1354 451.483 55.1266 450.841 56.3916C450.218 57.6566 449.906 59.1292 449.906 60.8096V78H444.979ZM484.599 78.5664C482.654 78.5664 480.945 78.1982 479.473 77.4619C478 76.7256 476.848 75.6872 476.018 74.3467C475.206 73.0062 474.8 71.4486 474.8 69.6738V69.6172C474.8 67.9368 475.215 66.4831 476.046 65.2559C476.896 64.0286 478.113 63.0563 479.699 62.3389C481.304 61.6214 483.23 61.1966 485.477 61.0645L496.38 60.4414V64.2646L486.043 64.8877C484.079 65.001 482.55 65.473 481.455 66.3037C480.379 67.1344 479.841 68.2389 479.841 69.6172V69.6738C479.841 71.0898 480.369 72.2132 481.427 73.0439C482.503 73.8747 483.928 74.29 485.703 74.29C487.251 74.29 488.639 73.9691 489.866 73.3271C491.112 72.6663 492.094 71.7695 492.812 70.6367C493.548 69.5039 493.916 68.2295 493.916 66.8135V58.1191C493.916 56.3255 493.35 54.9189 492.217 53.8994C491.103 52.861 489.517 52.3418 487.459 52.3418C485.571 52.3418 484.042 52.7572 482.871 53.5879C481.719 54.3997 481.002 55.4665 480.719 56.7881L480.662 57.043H475.904L475.933 56.7314C476.084 55.1077 476.631 53.6351 477.575 52.3135C478.538 50.9919 479.86 49.944 481.54 49.1699C483.22 48.377 485.212 47.9805 487.516 47.9805C489.838 47.9805 491.839 48.377 493.52 49.1699C495.219 49.9629 496.531 51.0863 497.456 52.54C498.381 53.9749 498.844 55.6742 498.844 57.6377V78H493.916V73.2139H493.803C493.236 74.29 492.481 75.234 491.537 76.0459C490.593 76.8389 489.526 77.4619 488.337 77.915C487.166 78.3493 485.92 78.5664 484.599 78.5664ZM505.103 78V48.5469H510.03V53.5312H510.144C510.634 51.832 511.484 50.4821 512.692 49.4814C513.901 48.4808 515.336 47.9805 516.997 47.9805C517.431 47.9805 517.818 48.0088 518.158 48.0654C518.517 48.1032 518.791 48.141 518.979 48.1787V52.9648C518.791 52.8893 518.451 52.8232 517.96 52.7666C517.488 52.71 516.95 52.6816 516.346 52.6816C515.081 52.6816 513.967 52.9648 513.004 53.5312C512.06 54.0977 511.324 54.9189 510.795 55.9951C510.285 57.0524 510.03 58.3268 510.03 59.8184V78H505.103ZM526.683 87.9121C526.211 87.9121 525.729 87.8838 525.238 87.8271C524.766 87.7894 524.37 87.7422 524.049 87.6855V83.6641C524.257 83.7018 524.493 83.7396 524.757 83.7773C525.04 83.8151 525.333 83.834 525.635 83.834C527.202 83.834 528.448 83.5602 529.373 83.0127C530.317 82.4652 531.082 81.3607 531.667 79.6992L532.262 78.0283L521.33 48.5469H526.598L535.094 74.2051L534.046 73.0723H535.519L534.471 74.2051L542.995 48.5469H548.178L536.68 79.8408C535.981 81.71 535.198 83.2393 534.329 84.4287C533.461 85.6182 532.413 86.4961 531.186 87.0625C529.958 87.6289 528.457 87.9121 526.683 87.9121Z" fill="white"/>
<path d="M182.729 122V106.499H187.993C189.526 106.499 190.836 106.807 191.925 107.423C193.013 108.032 193.848 108.912 194.428 110.065C195.015 111.211 195.309 112.597 195.309 114.223V114.244C195.309 115.87 195.019 117.263 194.438 118.423C193.858 119.583 193.024 120.471 191.936 121.087C190.847 121.696 189.533 122 187.993 122H182.729ZM184.663 120.26H187.864C189.024 120.26 190.013 120.027 190.829 119.562C191.646 119.089 192.265 118.409 192.688 117.521C193.117 116.625 193.332 115.54 193.332 114.266V114.244C193.332 112.969 193.117 111.884 192.688 110.989C192.258 110.094 191.635 109.414 190.818 108.948C190.009 108.476 189.024 108.239 187.864 108.239H184.663V120.26ZM204.755 122V106.499H214.359V108.239H206.689V113.213H213.961V114.932H206.689V120.26H214.359V122H204.755ZM229.037 122.312C227.913 122.312 226.928 122.132 226.083 121.774C225.238 121.416 224.568 120.915 224.074 120.271C223.58 119.619 223.297 118.863 223.225 118.004L223.215 117.875H225.148L225.17 118.004C225.234 118.52 225.438 118.967 225.782 119.347C226.126 119.719 226.584 120.009 227.157 120.217C227.737 120.424 228.4 120.528 229.144 120.528C229.868 120.528 230.501 120.421 231.046 120.206C231.597 119.984 232.023 119.676 232.324 119.282C232.632 118.881 232.786 118.416 232.786 117.886V117.875C232.786 117.216 232.55 116.675 232.077 116.253C231.604 115.823 230.834 115.49 229.767 115.254L228.049 114.878C226.516 114.541 225.392 114.019 224.676 113.31C223.959 112.601 223.601 111.684 223.601 110.56V110.549C223.609 109.689 223.845 108.934 224.31 108.282C224.776 107.631 225.417 107.118 226.233 106.746C227.057 106.374 227.999 106.188 229.058 106.188C230.082 106.188 230.992 106.37 231.787 106.735C232.582 107.101 233.216 107.602 233.688 108.239C234.161 108.869 234.422 109.593 234.472 110.409L234.483 110.56H232.55L232.528 110.42C232.457 109.919 232.267 109.489 231.959 109.131C231.658 108.766 231.257 108.483 230.756 108.282C230.254 108.075 229.671 107.971 229.005 107.971C228.339 107.971 227.748 108.075 227.232 108.282C226.717 108.483 226.312 108.773 226.018 109.152C225.725 109.525 225.578 109.972 225.578 110.495V110.506C225.578 111.129 225.811 111.648 226.276 112.063C226.749 112.479 227.501 112.798 228.532 113.02L230.251 113.406C231.325 113.635 232.192 113.94 232.85 114.319C233.509 114.699 233.993 115.168 234.301 115.727C234.609 116.278 234.763 116.937 234.763 117.703V117.714C234.763 118.659 234.53 119.476 234.064 120.163C233.599 120.843 232.936 121.373 232.077 121.753C231.218 122.125 230.204 122.312 229.037 122.312ZM244.08 122V106.499H246.014V122H244.08ZM262.529 122.312C261.455 122.312 260.481 122.122 259.607 121.742C258.74 121.363 257.999 120.818 257.383 120.109C256.768 119.4 256.295 118.548 255.965 117.553C255.636 116.557 255.471 115.444 255.471 114.212V114.19C255.471 112.565 255.761 111.154 256.341 109.958C256.921 108.762 257.741 107.835 258.801 107.176C259.861 106.517 261.104 106.188 262.529 106.188C263.703 106.188 264.731 106.395 265.612 106.811C266.493 107.219 267.22 107.788 267.793 108.519C268.365 109.242 268.759 110.076 268.974 111.021L269.017 111.183H267.019L266.987 111.064C266.65 110.076 266.102 109.313 265.343 108.776C264.591 108.239 263.653 107.971 262.529 107.971C261.49 107.971 260.588 108.225 259.822 108.733C259.063 109.235 258.476 109.951 258.06 110.882C257.652 111.813 257.448 112.916 257.448 114.19V114.212C257.448 115.186 257.562 116.063 257.792 116.844C258.028 117.617 258.368 118.28 258.812 118.831C259.256 119.375 259.79 119.794 260.413 120.088C261.043 120.382 261.752 120.528 262.54 120.528C263.456 120.528 264.262 120.346 264.957 119.98C265.658 119.608 266.203 119.092 266.589 118.434C266.983 117.775 267.18 117.008 267.18 116.135V115.812H262.819V114.115H269.114V115.78C269.114 116.783 268.96 117.689 268.652 118.498C268.351 119.3 267.914 119.988 267.341 120.561C266.768 121.126 266.077 121.56 265.268 121.86C264.459 122.161 263.546 122.312 262.529 122.312ZM278.636 122V106.499H280.516L290.076 120.217L288.175 118.648H289.099V106.499H291.011V122H289.131L279.57 108.304L281.461 109.861H280.548V122H278.636ZM318.047 122.312C316.922 122.312 315.938 122.132 315.093 121.774C314.248 121.416 313.578 120.915 313.084 120.271C312.59 119.619 312.307 118.863 312.235 118.004L312.224 117.875H314.158L314.179 118.004C314.244 118.52 314.448 118.967 314.792 119.347C315.136 119.719 315.594 120.009 316.167 120.217C316.747 120.424 317.409 120.528 318.154 120.528C318.877 120.528 319.511 120.421 320.055 120.206C320.607 119.984 321.033 119.676 321.334 119.282C321.642 118.881 321.796 118.416 321.796 117.886V117.875C321.796 117.216 321.559 116.675 321.087 116.253C320.614 115.823 319.844 115.49 318.777 115.254L317.058 114.878C315.526 114.541 314.401 114.019 313.685 113.31C312.969 112.601 312.611 111.684 312.611 110.56V110.549C312.618 109.689 312.855 108.934 313.32 108.282C313.786 107.631 314.427 107.118 315.243 106.746C316.067 106.374 317.008 106.188 318.068 106.188C319.092 106.188 320.002 106.37 320.797 106.735C321.592 107.101 322.225 107.602 322.698 108.239C323.171 108.869 323.432 109.593 323.482 110.409L323.493 110.56H321.559L321.538 110.42C321.466 109.919 321.276 109.489 320.969 109.131C320.668 108.766 320.267 108.483 319.765 108.282C319.264 108.075 318.68 107.971 318.014 107.971C317.348 107.971 316.758 108.075 316.242 108.282C315.726 108.483 315.322 108.773 315.028 109.152C314.735 109.525 314.588 109.972 314.588 110.495V110.506C314.588 111.129 314.82 111.648 315.286 112.063C315.759 112.479 316.511 112.798 317.542 113.02L319.261 113.406C320.335 113.635 321.201 113.94 321.86 114.319C322.519 114.699 323.002 115.168 323.31 115.727C323.618 116.278 323.772 116.937 323.772 117.703V117.714C323.772 118.659 323.54 119.476 323.074 120.163C322.609 120.843 321.946 121.373 321.087 121.753C320.227 122.125 319.214 122.312 318.047 122.312ZM333.09 122V106.499H335.024V122H333.09ZM345.083 122V106.499H347.317L352.656 119.497H352.774L358.113 106.499H360.358V122H358.553V110.087H357.64L359.767 106.929L353.537 122H351.904L345.673 106.929L347.8 110.087H346.887V122H345.083ZM371.384 116.468V114.749H375.595C376.705 114.749 377.564 114.463 378.173 113.89C378.782 113.31 379.086 112.511 379.086 111.494V111.473C379.086 110.449 378.782 109.65 378.173 109.077C377.564 108.504 376.705 108.218 375.595 108.218H371.384V106.499H376.089C377.063 106.499 377.922 106.707 378.667 107.122C379.412 107.537 379.995 108.118 380.418 108.862C380.848 109.607 381.062 110.47 381.062 111.451V111.473C381.062 112.454 380.848 113.32 380.418 114.072C379.995 114.824 379.412 115.411 378.667 115.834C377.922 116.257 377.063 116.468 376.089 116.468H371.384ZM370.417 122V106.499H372.351V122H370.417ZM390.337 122V106.499H392.271V120.26H399.747V122H390.337ZM408.926 122V106.499H410.859V122H408.926ZM420.918 122V106.499H430.328V108.239H422.852V113.567H429.716V115.286H422.852V122H420.918ZM439.592 122V106.499H441.526V122H439.592ZM451.585 122V106.499H461.188V108.239H453.519V113.213H460.791V114.932H453.519V120.26H461.188V122H451.585ZM470.796 122V106.499H476.06C477.593 106.499 478.903 106.807 479.992 107.423C481.08 108.032 481.914 108.912 482.495 110.065C483.082 111.211 483.375 112.597 483.375 114.223V114.244C483.375 115.87 483.085 117.263 482.505 118.423C481.925 119.583 481.091 120.471 480.002 121.087C478.914 121.696 477.6 122 476.06 122H470.796ZM472.73 120.26H475.931C477.091 120.26 478.079 120.027 478.896 119.562C479.712 119.089 480.332 118.409 480.754 117.521C481.184 116.625 481.399 115.54 481.399 114.266V114.244C481.399 112.969 481.184 111.884 480.754 110.989C480.325 110.094 479.702 109.414 478.885 108.948C478.076 108.476 477.091 108.239 475.931 108.239H472.73V120.26Z" fill="white"/>
<defs>
<clipPath id="clip0_75_1829">
<rect width="151" height="156" fill="white"/>
</clipPath>
</defs>
</svg>
